/* XPM */
static char *result[] = {
/* columns rows colors chars-per-pixel */
"50 50 219 2 ",
"   c #2B241E",
".  c #34261E",
"X  c #2D2422",
"o  c #2E2925",
"O  c #292728",
"+  c #2E2D2C",
"@  c #332623",
"#  c #392626",
"$  c #342A24",
"%  c #3B2A26",
"&  c #342D2B",
"*  c #3B2E2B",
"=  c #35322D",
"-  c #3C3429",
";  c #3B322D",
":  c #2C2B30",
">  c #392F30",
",  c #382E35",
"<  c #353331",
"1  c #3B3331",
"2  c #3C3933",
"3  c #383439",
"4  c #3C3B3A",
"5  c #591C23",
"6  c #462A24",
"7  c #422E2B",
"8  c #5A2527",
"9  c #542A2B",
"0  c #592C2E",
"q  c #43332D",
"w  c #49332E",
"e  c #453A2E",
"r  c #4B3A2D",
"t  c #5A3526",
"y  c #59392A",
"u  c #5B2E31",
"i  c #433532",
"p  c #4A3634",
"a  c #443B34",
"s  c #4B3C35",
"d  c #40373A",
"f  c #463D3A",
"g  c #4C3D3A",
"h  c #5D3334",
"j  c #543B35",
"k  c #523E3A",
"l  c #64242A",
"z  c #6D272C",
"x  c #652E2B",
"c  c #742A2E",
"v  c #7A2B2F",
"b  c #6B312D",
"n  c #61382B",
"m  c #753B2A",
"M  c #752E31",
"N  c #7D2D31",
"B  c #663736",
"V  c #643C3C",
"C  c #6A3E3E",
"Z  c #7D3134",
"A  c #763B35",
"S  c #793C36",
"D  c #773C3C",
"F  c #52412F",
"G  c #464134",
"H  c #4B4236",
"J  c #45433C",
"K  c #4D433C",
"L  c #4D493D",
"P  c #524234",
"I  c #52433C",
"U  c #5B4438",
"Y  c #54493D",
"T  c #594B3E",
"R  c #614432",
"E  c #453B42",
"W  c #4D4541",
"Q  c #494646",
"!  c #4C4B44",
"~  c #534542",
"^  c #594643",
"/  c #544A44",
"(  c #5B4B44",
")  c #514249",
"_  c #564C49",
"`  c #5B4D4A",
"'  c #545045",
"]  c #5B5145",
"[  c #54524C",
"{  c #56504F",
"}  c #5C524C",
"|  c #5E5551",
" . c #565B55",
".. c #5C5B54",
"X. c #6A4844",
"o. c #614F4A",
"O. c #76464A",
"+. c #62534C",
"@. c #62584E",
"#. c #625552",
"$. c #685656",
"%. c #635B54",
"&. c #6A5B54",
"*. c #6A5E59",
"=. c #5D635B",
"-. c #6B6355",
";. c #63655D",
":. c #69635D",
">. c #66685D",
",. c #786F56",
"<. c #71645C",
"1. c #72695A",
"2. c #635D61",
"3. c #686963",
"4. c #766965",
"5. c #6D736B",
"6. c #767469",
"7. c #746D79",
"8. c #787A73",
"9. c #7A7C74",
"0. c #802F32",
"q. c #843135",
"w. c #8B3337",
"e. c #893937",
"r. c #8C3439",
"t. c #8D3C3D",
"y. c #93373A",
"u. c #933A3B",
"i. c #9C3E3F",
"p. c #A13D3F",
"a. c #94413B",
"s. c #98453E",
"d. c #974E3D",
"f. c #9B4A3E",
"g. c #885332",
"h. c #9D543B",
"j. c #A1533E",
"k. c #A55A3B",
"l. c #A9683B",
"z. c #B6763B",
"x. c #8D3F43",
"c. c #913F42",
"v. c #9C3E40",
"b. c #A63F42",
"n. c #9A4941",
"m. c #9C5542",
"M. c #A64041",
"N. c #A84042",
"B. c #A25442",
"V. c #A45A43",
"C. c #AA5D47",
"Z. c #96684E",
"A. c #946A52",
"S. c #9A6C53",
"D. c #88785A",
"F. c #A56545",
"G. c #AA6344",
"H. c #AD6B45",
"J. c #AD6549",
"K. c #AE6A4B",
"L. c #B16C46",
"P. c #B36E4C",
"I. c #AA774A",
"U. c #B47344",
"Y. c #BD7E45",
"T. c #B5724B",
"R. c #B9764D",
"E. c #B6794B",
"W. c #BB7C4C",
"Q. c #A77857",
"!. c #BB7C51",
"~. c #BA7B59",
"^. c #83776A",
"/. c #827A75",
"(. c #887876",
"). c #927E7D",
"_. c #7C8178",
"`. c #CA8C34",
"'. c #938055",
"]. c #BD824B",
"[. c #BD884A",
"{. c #A68356",
"}. c #BC8755",
"|. c #BE9D5D",
" X c #87827C",
".X c #96857E",
"XX c #AC906A",
"oX c #C48949",
"OX c #C9924C",
"+X c #D39C49",
"@X c #C28551",
"#X c #C68E58",
"$X c #D29D54",
"%X c #DAA14D",
"&X c #D9AC57",
"*X c #CAA379",
"=X c #D3AC7F",
"-X c #529BB0",
";X c #55A2B5",
":X c #7DB2B9",
">X c #5FB7CE",
",X c #848C82",
"<X c #958B87",
"1X c #899287",
"2X c #95948C",
"3X c #949991",
"4X c #A19882",
"5X c #9EA59A",
"6X c #A8AEA3",
"7X c #ABB3A8",
"8X c #D7AF85",
"9X c #D7B185",
"0X c #DCB689",
"qX c #DDB689",
"wX c #E2BC8F",
"eX c #E4BE90",
"rX c #E6C394",
"tX c #EAC697",
"yX c #F4D2A1",
/* pixels */
"+ + & & & & & & * & * * $ ; 2 = % i ; o 1 1 = + o 2 1 = & & ; ; < 3 + < 1 = > , # & & & , & & : & @ ",
"+ + + & & & * & 1 > ; ; & ; 2 = & 1 ; ; 2 = = = 2 o o & 1 1 & ; 2 2 = 3 1 & i d , * & & & & & X o o ",
"= + + & * * * ; # @ % $ . ; - $ & & o & & & & 4 2   2 > @ 2 & @ + = + = & X & > 7 > # , * & & & & o ",
"= = = 1 1 > 1 ; i % ; 1 2 G K a ~ g i d W J _ 6.J W 9.| & _ ^ f Q W f W W i g f d i , 7 > 1 & & & & ",
"< & = > 1 1 7 > i * q p a I / K ` ~ g W _ _ %./.f ` <X*.i #.` ) [ _ J } | K W g p i i q 1 * ; * < < ",
"& & & * * * i 7 7 # % * - a g q g p p g ~ a K | 1 & ` / i W g s / J a / ( a p q p 7 7 q q q * * * > ",
"& & > > > i 7 i p i q p s Y ( g g g g g / g d ~ a d s f I ^ E I } Y J ] | I U ~ i 7 7 * * q - - & < ",
"; 1 > i i i i p p 7 q p s ^ ( H ( ^ K ~ / W f W a } J i g ` #.^ } } H +.#.^ +.&.p 7 7 w q q q ; * = ",
"; = & 1 a * % i p 7 7 q w s P p g k k d k q +.:.( ( k g k k k j Y P p Y ^ I ^ I w r q 7 e q . $ & = ",
"; ; 1 g ^ ~ ~ o.^ p s Y ( +.D M N r.x.x.x.x.t.a.x.n.t.t.t.t.t.x.x.e.m.{.{.U H ^ Y U o.H ] 1.Y q 1 1 ",
"& ; ; a / ~ g ( +.I k ^ ( B p.0.N y.v.x.7.n.y.y.y.y.y.c.y.u.y.y.u.r.a.z.&XR g +.( I o.s <.4X+.$ ; < ",
"& = & 2 K a i s ( s q s h v b.0.c r.O.-X-X2.Z q.Z Z q.q.q.q.r.r.r.r.r.u.oXy q H . q #.q ^ /.G ; & & ",
"= = = G L L K ~ ( I Y ( 0 v f.0.N w.O.>X:X_ <.X.n n n n y n b b b b w.r.u.9 K H s s &.I %./.K 1 < 1 ",
"= = = G ' L H / I Y @.%.h v i.v c r.x.7.;X2.D B x x x x b 0 t t t t M r.i.0 _ _ ` ~ %.I *./.L ; = 1 ",
"- = = 2 ' L e G e a L Y u z Z z v r.q.x.O.r.q.w.w.q.r.r.r.N c c M N q.r.n.8 f _ @ W %.W f / 1 = = = ",
"= = = G ' Y G K / / / ' 0 z w.c v r.V.J.y.r.r.r.w.y.r.r.r.r.r.f.R.a.r.r.v.9 W #.~ ` I f -./.| @ 1 1 ",
"= 2 - H T T H Y [ J  .[ l l v z c B.R.@XP.r.r.w.s.@XP.t.r.w.a.@XW.P.u.r.s.0 d ` g ~ ( k 4.<X*.$ 1 ; ",
"= = & e Y P s ' J 4 Q  .9 z p.0.c V.~.R.B.w.i.B.J.L.G.J.f.u.u.T.P.!.u.r.p.0 W ( ; i g i ~ ( 1 $ 1 < ",
"4 = - H T T P @.' ! [ 5.V v f.w.v y.J.V.j.V.!.T.P.$XV.m.@XP.j.C.P.m.r.r.v.u | %.W / o.^ ~ K - K = 1 ",
"+ = = F T Y s L J <  .3.C v p.0.v r.r.B.L.R.!.R.~.#XP.Q.{.I.L.T.a.w.r.r.i.B ! _ d ) ` p g / 1 ; ; < ",
"+ 4 2 G ^ T P K [ J 3.5.C v p.0.v r.s.H.j.@Xk.Y.OXOXD._...,.U.k.J.r.r.r.n.h 3.%.H ` ` d K _ 2 = 1 1 ",
"4 4 2 G Y T I / .. .5.3XC 0.p.q.c w.u.G.l.].Y.l.l.}.,.,.^.{.U.R.h.r.r.r.v.h 9.3...| } K W I ; a 1 = ",
", + = K ( H e L L L =. XC v b.0.v w.s.@XE.U.$Xz.}.|.XX.X^.I.Y.@XT.t.r.r.v.h 9.3.' W J ; f / & . 1 ; ",
"3 + 4 :.^.] G ' =.! _.1XO.0.b.0.v w.y.J.T.K.%Xz.|.OX|.XX6.E.G.R.n.r.r.r.v.V 1X,X[ ..| J *./.| & 1 < ",
"3 3 1 / *.( s Y %.2X5X5XX.v b.0.v r.w.u.d.OX`.#X~.}.XX'.5.'.H.a.r.r.r.w.n.V ,X7X X[ } f } 4.; a & < ",
": O & } 4.( q / ;.2X6X6XX.v b.0.v r.r.f.G.H.$XY.k.#XD.-.^.A.m.H.r.r.w.w.v.V ,X6X2X../ ; } 6.; & 1 ; ",
"4 : 2 -.^.&.P %.J >.3X7XO.0.b.0.v r.r.f.#Xd.H.[.oX&XD.XXQ.h.T.].r.r.q.r.v.C -X4X8.[ } W 4. X/ 1 = = ",
"4 < + K -.( e /  .! 5.1XR 0.b.0.v r.r.f.J.U.].V.F.@XE.h.U.Y.T.B.a.r.r.r.v.h D.1.W J _ g #.4.g 1 1 1 ",
"< <   - T Y r H ! 2 =.8.C v N.N v r.J.#X!.C.].].l.P.Y.@XoXL.G.#X@Xn.r.r.v.h 5..._ / _ i s ^ * * 1 < ",
"= G - e o.T P P Q Q 8.3XO.c r.c v r.P.!.!.a.s.l.U.W.U.l.j.u.V.#XW.B.r.r.v.V /.6._ / ^ a ) ` i 1 1 1 ",
"+ 2 - - T Y H Y J J ..=.V z 0.z v r.u.V.f.r.r.r.f.C.m.u.r.r.a.h.m.r.r.r.v.h | ..* * p g ( ( p * 1 1 ",
"< 2 - e T H H } ' [ 3.=.X.c y.v v r.y.w.r.r.r.r.w.r.r.r.r.r.r.r.r.r.r.r.u.h :.,Xg K ~ g g p * a ; 1 ",
"= 2 4 a W I / } ' J ' >.V M M.N c w.y.w.w.y.r.r.r.r.r.r.r.r.r.r.r.r.r.w.h.U -.G a %.} H g E I a 1 1 ",
"< < ; J _ f a Y L - a L h N N.N c y.w.r.w.r.r.r.r.r.r.r.r.r.r.r.r.r.w.d.$XU G / ; s p i g a * @ ; = ",
"1 ; 1 f _ / g / ' H L ! u N b.N v y.r.y.y.r.y.r.r.y.r.r.y.r.r.r.r.0.k.`.+Xy Y @._ ( I ~ ( g i i 1 ; ",
"= 4 1 d / _ H G T H L L h q.N A S S A A S S S S S S D D S S D A D m g.g.m 6 ' ( Y ( ( p p g * p 1 3 ",
"3 & 1 ~ | ~ q q ^ s s g u M O.|.*X*X*X*X*X*X*X*X*X*X*X*X*X*X*X*X*X*X8XA.5 O Y ^ g ^ ( * p o.i # * = ",
"4 O > 3./.` q ( ( s Y ( 0 M XX*X9X9X0XrXrXrXtXyXyXtXtXrXrXrX9X8X8X8X9Xm.5 & o.o.E ^ +.j *.).o.# & & ",
"d O 1 -.6.+.g &.P q s ( 0 z Q.=X0X0X0XwXrXwXeXrXtXeXwXwXwXwXqXqXqXqXwXQ.b 6 P I j k X.j $.(.^ # > < ",
"= 1 & d ) g q s P 7 s ( p 8 B m.S.S.S.S.S.S.S.S.S.S.S.S.S.S.S.S.S.S.S.Z.l.t $ ( w w E 7 j $.7 & * 1 ",
"& 4 4 p g s g +.( U T o.X.k l 8 l l l l l l l l z z l l l l l l l z R g.l.r ^ +.p w p p p E j 7 1 < ",
"> > & & * $ # q s p s I ~ ( g 6 6 w # # 7 6 * a ` E i 7 7 6 w 6 w 6 6 % - @ s j p w p 7 7 p 6 * * < ",
"> > & 1 g s q P w q r k ~ o.) i g ( H e s G L G { { Q W P s F F r e - s I e k I p p j 7 * i # > & & ",
"1 d 1 i f q % 7 7 q s s k ` _ 7 g ^ H I H G H e a E g k s k F r Y Y H ( T e s g j 7 p * 7 p * 7 & + ",
"& , & % 7 * 7 g 7 e H a a K ! i g g i ^ H G T | ~ ` ` g g ( H . e G - e w - k U s % % % * i @ & & & ",
"& , # * i g ( <.H I / L a W _ W ) E i ) L H 1.^.+.4.(.$.f / ! K ' ] L / +.@.^..XI 7 q % * i @ @ & & ",
"d d * # % * q H H r H L G L Q J Q E 2 L G G -.-.k $.(.{ 3 E J ! L L e s a e ` +.k - q % * ; @ & & o ",
"X X X & 1 % @ % -   $ = = = = + 2 < = 2 o $ a @ * # , # , Q : + = - $ - - . q * 7 @ ; & % & X * o o ",
"# @ & & @ & & & & 1 1 ; = 1 = = 1 < 1 < ; = ; ; ; & ; > & < 2 & - = = = & ; & ; & * = ; & & & o o & ",
"o : & & + & < & & 1 < = = 1 < = < 1 < 1 < ; = < = = < = & 1 3 & 2 = = = = & & = = < = & = & & & & + "
};
