/* XPM */
static char *result[] = {
/* columns rows colors chars-per-pixel */
"50 50 139 2 ",
"   c #36211B",
".  c #3B251D",
"X  c #362620",
"o  c #3E2620",
"O  c #362C27",
"+  c #3A2A24",
"@  c #362D28",
"#  c #3B2E29",
"$  c #34312D",
"%  c #3C322C",
"&  c #3F3D2E",
"*  c #3D3631",
"=  c #3E3833",
"-  c #40281F",
";  c #442C22",
":  c #4A2E24",
">  c #4D3126",
",  c #44342D",
"<  c #4B332A",
"1  c #4E392E",
"2  c #523326",
"3  c #593627",
"4  c #593A27",
"5  c #553629",
"6  c #59372A",
"7  c #56382B",
"8  c #5B3A2C",
"9  c #413631",
"0  c #433A34",
"q  c #4C3C35",
"w  c #443E39",
"e  c #4C3F38",
"r  c #543C32",
"t  c #5C3E30",
"y  c #603E2E",
"u  c #623E30",
"i  c #47423C",
"p  c #4C433C",
"a  c #52433C",
"s  c #5E4338",
"d  c #504E3F",
"f  c #5F483F",
"g  c #644625",
"h  c #66442B",
"j  c #6A4A28",
"k  c #6E5028",
"l  c #755527",
"z  c #61493F",
"x  c #795633",
"c  c #4B4641",
"v  c #4E4A44",
"b  c #514740",
"n  c #534C45",
"m  c #594D47",
"M  c #524E49",
"N  c #584F4A",
"B  c #545243",
"V  c #5A5246",
"C  c #5A5E44",
"Z  c #56514C",
"A  c #5B544B",
"S  c #5C5A4C",
"D  c #555251",
"F  c #5A5751",
"G  c #5D5A54",
"H  c #5C5C5C",
"J  c #644B41",
"K  c #61554D",
"L  c #62584E",
"P  c #635C52",
"I  c #695E55",
"U  c #605E5A",
"Y  c #6A5D58",
"T  c #646A4D",
"R  c #6A754C",
"E  c #646155",
"W  c #6B6357",
"Q  c #65625B",
"!  c #6B655C",
"~  c #6C695D",
"^  c #71675C",
"/  c #726A5E",
"(  c #6C7157",
")  c #6E7850",
"_  c #72735C",
"`  c #656565",
"'  c #6B6463",
"]  c #6D6A61",
"[  c #676868",
"{  c #686868",
"}  c #706664",
"|  c #746C63",
" . c #796F65",
".. c #756D69",
"X. c #796F6E",
"o. c #767166",
"O. c #7A7166",
"+. c #767369",
"@. c #7B746A",
"#. c #7E796E",
"$. c #7E7A72",
"%. c #88642D",
"&. c #8B692E",
"*. c #866634",
"=. c #92713B",
"-. c #807967",
";. c #81766D",
":. c #827A6E",
">. c #817773",
",. c #847C72",
"<. c #897F75",
"1. c #847C79",
"2. c #748347",
"3. c #74824A",
"4. c #7E8B53",
"5. c #AE8A3F",
"6. c #848B60",
"7. c #898D67",
"8. c #868174",
"9. c #8A8276",
"0. c #8D847A",
"q. c #8F897C",
"w. c #90877D",
"e. c #928A7E",
"r. c #929175",
"t. c #96907D",
"y. c #98917F",
"u. c #8D8581",
"i. c #8E8A83",
"p. c #918784",
"a. c #958C82",
"s. c #988E84",
"d. c #958D8A",
"f. c #979082",
"g. c #9B9285",
"h. c #9D9489",
"j. c #A0978C",
"k. c #A2998C",
"l. c #A59B92",
/* pixels */
":.9.<.<.<.Y K ;.;.<.<.| K :.:.<.;.| m 1.@.<.;.0.V O.8.-.:.7.,.-.:.<.<.<.Y I :.<.:.<. .f ;.:.<. .>.b ",
"0.s.w.s.k.<.;.k.a.s.s.<.| s.w.s.s.a.^ j.s.g.w.h._ 0.g.t.y.t.t.y.s.s.e.s.:. .s.e.s.s.a.! s.s.l.k.p.L ",
"s.j.a.w.s.;.| s.a.a.a.9.;.j.s.s.9.:.Y a.e.g.w.e./ 9.t.t.t.0.9.y.s.<.0.s.<.;.j.j.s.s.w.W <.:.w.w.p.F ",
"| :. .;.<.| ^ j.a.s.a.#.K ;.;. .,.;.P :.:.9.8.9.I ,.t.e.e.e.e.y.s.0.<.a. .I  .;.;. .@.P w.:.w.d.d.P ",
"^ :.;.@.<.| ^ h.<.0.9.O.L O.o.@.O. .A E L C A V V :.f.9.9.w.w.0.:.;.<.q.| L O.O. . . .L s.9.s.w.d.H ",
",.g.s.s.w.I | >.@.#.#.| n ] $.$.:.;.@.@.P P o.O.| @.#.@.P | #.@.@.@.#./ F O.$.:.>.;.#.E ~ 9.w.,.u.F ",
";.a.a.s.g.@.j.g.g.f.f.q.+.h.g.g.g.f.e.g.,.8.w.f.g.g.g.f.@.e.g.g.g.g.g.q.$.g.f.g.g.g.g.9.N w.j.w.i.H ",
"<.s.w.w.s.O.g.g.g.f.e.q.@.f.t.g.g.g.g.g.@.#.f.f.g.g.e.t.@.e.g.g.f.g.g.e.8.g.s.g.g.s.g.0.c | :. .$.c ",
" .s.w.j.,.~ g.s.f.g.s.w.U o.#.@.+.o.@.#.Q Q @.#.+.] #.@.U q.g.g.f.f.e.q.:.g.g.g.g.f.g.9.p <.<.>.$.v ",
",.h.w.s.,.~ s.s.g.f.f.q.o.f.t.f.#.+.f.f.g.q.g.g.#.+.f.e.] 8.f.f.g.f.g.9.O.g.g.g.g.g.e.| c a.s.w.d.H ",
":.j.<.w.8.F O.@._ @.#.o.~ #.#.@.Q Q $.,.8.8.:.W S P o.<.~ Q #.#.o.@.#.~ E @.#.#.O.| | U M s.h.s.i.G ",
"K :. . .| E t.8.Q 0.e.w.i.t.f.8.] t.f.8.m 9 < > < > < < % Z 9.e.| w.e.s.e.f.a.f.@.] a.,.n  .;.;.X.M ",
"K :.;.;.;.^ f.w.@.g.a.a.g.g.g.e.@.f.O.p : 2 > ; : : > 5 5 : a @.#.f.t.e.g.g.g.h.9.9.t.8.c  .;.@.1...",
":.j.g.s.a.| s.0.( r.g.g.g.f.w.q.] P < 2 :               . : > < A s.g.s.g.g.g.y.8.9.g.9.A w.h.s.s.a.",
":.a.w.w.s.' s.q.T 2.6.t.g.e.e.e.d ; 2     ; : 5 > 7 7 : ;   . 5 < ~ g.g.t.g.7.4.R #.g.9.S 0.s.s.<.<.",
";.:.;.<.j.N O.O.E R ) _ o.#.,.S < 2 . . : 8 5 8 8 8 8 5 2 : . . 2 1 E #.#.@.T R T ~ #.W n <.w.w.a.a.",
":.0.s.0.f.| g.g.g.f.g.8.#.g.8.< 2 . ; > 5 8 6 8 8 8 8 2 6 5 2 o - 2 q 9.s.9.o.g.f.g.f.o.= ^ / / @.S ",
":.w.s.9.e.o.g.g.g.g.g.0.:.g.P > ;   2 8 6 8 6 8 6 8 8 6 8 8 8 2 . - > | e.q.8.h.g.g.g.,.n s.s.e.1.G ",
",.s.h.q.q._ r.g.f.e.f.,.#.e.q >   > 5 8 6 8 6 8 8 8 8 6 u 5 y 8 : . 2 b g.e.:.h.f.g.g.,.b e.e.w.q.Q ",
"| q.d.q.9.C 3.6.t.f.t.O.+.~ 5 - . 3 2 8 5 8 6 8 8 8 8 4 8 5 y 8 2   : q #.0.+.t.s.s.t.@.d w.e.w.0.G ",
"N } | | | n ( _ ~ ~ #.o.~ w > + e z J J J t 6 t 8 8 8 8 s m J z J 0 ; : V @.] #.| Q $.P v s.s.e.0.G ",
"1.d.p.d.d.+.g.e.@.$.h.f.s.a 2 % H ` ` [ ` U 8 y 8 8 8 r ! [ { ' ` H # : L k.k.h.0.+.h.9.n w.0.9.8.E ",
"1.h.p.p.u.O.g.e.8.8.g.q.s.a 5 O c p a e e r 6 u y 8 8 8 r a a b c p o 2 L g.f.e.0.4.d.9.Z e.<.O.#.C ",
"X.d.p.d.i.+.g.h.9.8.g.g.g.a 5   2 8 5 6 6 u 6 y 8 6 8 6 8 6 y 8 7 > . 2 L h.g.f.8.$.j.1.Z 0.-.W ~ d ",
"b } X.} } P <.w.o.Q q.q.0.p 5   2 8 6 8 8 y 3 8 8 6 6 6 y 8 8 8 8 > . 2 b e.w.q.@.Q 0.O.w ^ ^ W ~ & ",
"} p.p.p.p.M @.1.@.#.,.,.~ # 8   2 y 8 y 3 8 6 6 8 6 y 8 y 6 8 8 8 > . 5 & @.,.,.#.+.8.P p 0.9.9.8.B ",
"1.p.p.p.d.| k.k.h.g.g.g.:.% 2   6 y 8 y 3 8 6 8 5 8 u 8 y 8 8 8 8 > . 5 p f.f.g.g.h.j.<.A s.t.g.t.G ",
"1.h.j.d.h.@.h.g.g.g.e.g.:.% 2   5 8 8 y 6 8 8 8 5 8 u 5 8 8 8 8 4 > . 5 p f.s.g.g.f.g.9.Z 0.w.s.i.C ",
"N @.@./ | ! g.g.g.g.g.g.,.; 5   2 8 2 h 6 8 8 8 8 8 u 5 8 4 h *.x 4 . 2 i f.g.f.g.g.g.9.Z 0.w.s.q.S ",
"K 9.9.#.1.G @.9.8.8.8.0.] # 8   2 6 5 8 7 8 6 u 8 8 y 8 8 4 *.5.=.g . 2 % O.9.1.8.8.9.~ v 9.0.e.i.S ",
"@.h.h.q.f.Q 8.0.0.0.0.8.F @ 5   5 6 5 t 7 8 6 y 8 8 8 6 8 7 %.l &.k   5 m 0.u.i.X.4.0.@.v 9.q.q.i.S ",
":.f.w.9.t.#.h.g.h.h.g.g.$.% 3   2 6 5 8 8 8 6 h 8 8 8 8 y 8 j =.*.2 . 7 K g.d.j.1.f.f.9.B q.f.g.d.F ",
"<.e.w.0.a.$.s.t.g.g.f.g.:.% 2   2 8 3 8 6 t 5 y 8 8 u 6 u 6 6 6 6 > o 7 L g.f.g.:.g.g.9.i ,.@.| $.c ",
"<.s.s.w.s.| f.j.g.e.e.g.#.% 3   2 8 3 u 8 8 5 y 8 8 u 6 t 8 8 5 8 2 o 5 A t.s.e.@.g.h.0.c ,.,.9.$.v ",
":.s.s.w.s.U @.#.| @.#.:.~ # 2   2 5 5 u 6 8 5 8 8 8 u 6 8 8 8 6 6 > . 7 i @.#.+.Q +.#.` M a.w.l.i.H ",
" .a.e.w.s.| f.9.Q w.f.f.q.q 3   2 8 5 y 8 y 5 8 8 8 u 6 8 8 8 6 8 > . 5 p g.h.g.f.f.f._ M a.0.s.i.F ",
"^ ;.;.;.;. .g.e.#.h.g.g.f.a 4 o r 8 t t 8 u 8 8 8 8 u 6 8 t u t u r o 2 N g.g.g.g.f.g.,.p @. .O.$.c ",
" .:.;.;.:.} f.9.#.h.f.e.e.a 5 % H ' ' ' ` Y 8 8 8 8 t 8 Y ' ' ' ' H # > a s.q.g.g.s.g.#.i ,.<.1.,.M ",
"s.j.s.s.h.} w.9.~ 0.e.e.w.a 2 # D D D D D m 8 8 8 6 u 6 m D D D D M # 2 p 0.i.f.s.e.0.~ n s.g.s.i.H ",
"a.w.w.s.s.F @.#.] +.#.@.Q , 5 X < 7 < 7 5 8 8 8 6 6 u 5 6 1 8 r 8 q + 5 % ] #.] ] ;.#.U v w.0.0.i.G ",
"9.w.>.w.1./ g.g.h.h.h.f.] q 2   5 8 5 8 5 y 6 8 6 8 t 6 8 6 8 8 8 5 . 7 w q.g.9.1.k.k.8.S a.<.a.i.G ",
"P  ./  ./ ] g.s.h.h.h.t.] i 3   7 8 5 8 2 8 6 t 8 8 8 6 8 7 8 7 8 2 . 6 p g.g.9.9.g.h.#.n q.<.q.i.G ",
";.k.h.s.e.:.g.s.g.h.h.g.] e 2   5 8 7 8 6 8 8 h 8 t 8 8 8 8 8 8 8 > . 5 d g.e.:.8.h.g./ N h.d.a.u.D ",
" .s.q.:.;.P 8.9.8.9.r.#.F , :   > > > 5 > 5 2 5 5 2 5 < 2 2 5 5 < : . 2 w O.<.} Q 9.8.S c w.a.a.i.H ",
"<.s.w.<.<.P c n c n n p $ * 9 * * % @ % * 9 % 9 @ 9 w 0 9 9 = 0 i 0 = w % w n c c n c % Z <.w.<.u.M ",
":.w.w.s.s.w.w.w.s.w.<.^ m | / / W L W o. .O.~ @.P :.w.9.<.0.w.g.w.0.e.a. .| a.w.s.w.;.I  .|  .| $.c ",
";.s.w.s.h.w.s.e.s.,.O.;. .j.s.s.<.:.g.s.h.g.w.h.! <.a.q.w.a.a.s.w.w.a.s.| | h.w.a.<.<.<.s.s.j.s.u.F ",
";.j.w.w.w.w.s.w.w.1.<.<.@.a.p.g.1.>.j.<.a.d.w.d.^ <.p.q.a.s.p.w.s.<.w.s.O.;.j.0.0. .>.<.h.w.w.w.p.F ",
";.<.a.0.p.p.w.w.<.w.a.;.| <.s.<.1.9.w.w.a.w.a.a.^ @.w.p.w.w.p.w.w.a.w.w.@.| w.s.,.<.w.a.w.a.p.a.$.Q ",
"a P Y L L I P P m P P m a A I A A A L P P P L L w m L P L L P L K P P P b p P I m A P P I L P P U M "
};
