/* XPM */
static char *_45e5e8818e24ea1a2f9b400a574da34[] = {
/* columns rows colors chars-per-pixel */
"50 50 216 2 ",
"   c #030202",
".  c #090202",
"X  c #060A05",
"o  c #0A0B05",
"O  c #0A0708",
"+  c #070B08",
"@  c #0C0B0B",
"#  c #100702",
"$  c #140A04",
"%  c #110E0F",
"&  c #1A0F08",
"*  c #0D120C",
"=  c #12120C",
"-  c #1D130D",
";  c #120F10",
":  c #0E1411",
">  c #131413",
",  c #1B1613",
"<  c #131914",
"1  c #1A1A16",
"2  c #151718",
"3  c #161B1B",
"4  c #1A1C1A",
"5  c #19171A",
"6  c #22180F",
"7  c #24130C",
"8  c #281710",
"9  c #241A13",
"0  c #2C1E16",
"q  c #261D1A",
"w  c #281E1D",
"e  c #301F18",
"r  c #2A2017",
"t  c #23231D",
"y  c #2D221B",
"u  c #32231C",
"i  c #3C2A1C",
"p  c #37251A",
"a  c #211F22",
"s  c #1E2120",
"d  c #232325",
"f  c #272926",
"g  c #252529",
"h  c #242929",
"j  c #2B2C2B",
"k  c #292824",
"l  c #332622",
"z  c #342A21",
"x  c #3C2D23",
"c  c #332C29",
"v  c #3B2B29",
"b  c #3D3126",
"n  c #3D322B",
"m  c #37352F",
"M  c #2A2E31",
"N  c #332E32",
"B  c #343434",
"V  c #3D3C35",
"C  c #353739",
"Z  c #3A373A",
"A  c #3C3B3B",
"S  c #373839",
"D  c #422D1E",
"F  c #482E1F",
"G  c #40251C",
"H  c #432D24",
"J  c #492F21",
"K  c #462D2A",
"L  c #492F2B",
"P  c #433225",
"I  c #4A3424",
"U  c #44332A",
"Y  c #4B332B",
"T  c #44382B",
"R  c #4C3B2D",
"E  c #51362F",
"W  c #472D30",
"Q  c #433533",
"!  c #4A3332",
"~  c #453A32",
"^  c #4C3C33",
"/  c #4A3838",
"(  c #4E3538",
")  c #513D33",
"_  c #503431",
"`  c #3E423F",
"'  c #4C4236",
"]  c #44423C",
"[  c #4D433A",
"{  c #4A4839",
"}  c #534134",
"|  c #52443A",
" . c #534A3E",
".. c #5B493B",
"X. c #5A4636",
"o. c #51503E",
"O. c #624C3C",
"+. c #66503B",
"@. c #454440",
"#. c #494541",
"$. c #4A4945",
"%. c #494D48",
"&. c #554A41",
"*. c #5B4D43",
"=. c #514E4B",
"-. c #4D524C",
";. c #565144",
":. c #5C5245",
">. c #54514D",
",. c #5C554A",
"<. c #5D5A4C",
"1. c #595551",
"2. c #5D5A53",
"3. c #565654",
"4. c #614F44",
"5. c #615144",
"6. c #62564C",
"7. c #625A4E",
"8. c #6C5B4F",
"9. c #68564C",
"0. c #705949",
"q. c #655D52",
"w. c #6A5D53",
"e. c #625F5A",
"r. c #695F58",
"t. c #625751",
"y. c #656255",
"u. c #6A6156",
"i. c #64625C",
"p. c #6C645A",
"a. c #6D695B",
"s. c #71655B",
"d. c #7E675F",
"f. c #736B5D",
"g. c #726457",
"h. c #696561",
"j. c #696B63",
"k. c #756D62",
"l. c #796E64",
"z. c #736F6B",
"x. c #7A6F69",
"c. c #767164",
"v. c #7A7365",
"b. c #74726B",
"n. c #7D756A",
"m. c #7E796C",
"M. c #7A7770",
"N. c #7D7B72",
"B. c #836C64",
"V. c #81766C",
"C. c #827A6D",
"Z. c #897A6D",
"A. c #817771",
"S. c #857D72",
"D. c #897E74",
"F. c #847F79",
"G. c #7E8176",
"H. c #868174",
"J. c #8A8275",
"K. c #85827A",
"L. c #8D837A",
"P. c #8F877A",
"I. c #8E8579",
"U. c #8E867D",
"Y. c #8C847A",
"T. c #8E897C",
"R. c #938576",
"E. c #91877B",
"W. c #91877D",
"Q. c #92867C",
"!. c #98877D",
"~. c #90887B",
"^. c #918A7A",
"/. c #91897C",
"(. c #928A7D",
"). c #92897E",
"_. c #958B7F",
"`. c #948C7F",
"'. c #958E7E",
"]. c #928A7D",
"[. c #9A8D7E",
"{. c #8E8A82",
"}. c #8C8781",
"|. c #938B80",
" X c #958B81",
".X c #958D80",
"XX c #978D81",
"oX c #968E81",
"OX c #958D82",
"+X c #978F82",
"@X c #968D83",
"#X c #978E84",
"$X c #948D82",
"%X c #988E82",
"&X c #988F85",
"*X c #9A8E85",
"=X c #988F88",
"-X c #918680",
";X c #8E9085",
":X c #969185",
">X c #989083",
",X c #999184",
"<X c #9B9187",
"1X c #9B9286",
"2X c #9C9487",
"3X c #9A9285",
"4X c #979289",
"5X c #9E9589",
"6X c #9C948A",
"7X c #9D998B",
"8X c #A1968B",
"9X c #A39B8E",
"0X c #A2998D",
"qX c #A09486",
"wX c #A09790",
"eX c #A39C91",
/* pixels */
"L.L.L.W.L.s.u.n.D.S.I.l.u.n.A.S.S.f.u.l.S.D.S.D.w.l.C.D.D.J.J.C.S.S.J.C.f.f.C.H.J.C.v.7.v.S./.n.n.:.",
"L.L.U.#X@XA.C.&X@XU.#XS.n.|.&X,X@XS.n.J.%X%X/.E.n.J.@X_./.%X,X@X/.I./.I.n.C.I.@X,X@XI.v.~.`.2X@XJ.r.",
"#X@X@X#X/.n.n.|.,X/.@XC.n./.@XU.I.V.v.D.@X%X/.E.k.D.@X_.E._.@X_.@X~.@X@XS.C.I.@XY.~.C.f.J.J.I.|.D.q.",
"v.n.C.D.S.v.n.@X5X|.@Xn.f.S.S.C.C.k.f.v.C.S.C.C.u.C.%X,X@X@X@X/./.H.J.Y.v.f.n.S.C.S.v.p.S.J.J.@XL.p.",
"k.n.C.S.C.k.k.L.L.S.J.k.7.f.k.k.V.f.u.q.q.q.q.q.q.v.I.I.J.J.J.J.S.n.C.C.f.u.f.v.n.C.f.p.C.I.I.,XU.h.",
"I.@X#X|.J.k.k.S.C.C.J.k.q.v.C.C.D.C.v.s.u.u.s.f.k.C.D.V.l.n.S.D.S.C.C.C.k.k.C.C.C.C.k.f.f.J./.T.K.i.",
"S.~.@X@X/.S.I.9X@X`.2XJ.C.@X2X2X&X<X,XW.D.J. X5X X,X%XD.S.L.@X,X~././.J.m.J.@X/.`.>X/.S.q.H.@XJ.K.i.",
"H./.@X/.I.C.Y.9X5X@X,XS.n.@X@X`.W.&X,XW.C.V.J.@X@X,X&XL.J./.,X,X,X5X5X~.S.@X9X,X>X5X5XJ. .k.I.v.b.>.",
"C.J.@X`./.v.`.5X@X2X>XC.k.v.C.H.v.S.L.V.k.l.C.L.n.v.V.V.v.S.#X5X,X,X`.I.~.@X,X@X2X2X,XC.:.n.S.H.M.2.",
"J./.,X~.J.f.J.P.>X2X@XJ.C.H.Y.J.k.n.D.U.|. X/.L.V.A.I.L.V.A.W.@X/.2X@Xn.k.J.,X,X/.I.J.k.:.H.@X:XK.h.",
"m.Y.~.C.n.u.C.C.v.C.C.n.C.H.J.C.k.V.J.L.D.C.l.p.6.q.k.k.u.s.S.L.v.S.S.k.f.n.H.S.C.n.n.f.:.J.@X@XN.i.",
"u.n.C.f.k.u.H.C.v.C.H.J.~.`.(.J.n.D.J.l.,.[ [ [ ~ ~ [ | [ :.k.A.C.C.J.I.@X`.I.J.v.n.S.k.:.C.S.C.c.2.",
"u.m.H.n.C.k.~.Y.C.`.5X2X2X2X>X~.V.A.x.,.~ v v n n v n n n [ t.u.n.I.>X@X@X5X9X,XC.J.@XC.,.n.C.C.H.c.",
"C.Y.'.Y.~.m.`.P.v.H.>X>X>X>X`.I.k.r.&.n l y 9 - - & - 9 9 l ~ ~ ' C.9X@XY.,X2XI.H./.,XS.7.S.`.>X:XY.",
"C.P.'.(.`.v.J.H.f.C.Y.~.`.>X(.H.:.[ l - $ $ . . . . . . . - y z z 7./.5X@X/.Y.C.n.S.I.C.6.H.@X,X/.Y.",
"n.C.Y.Y.Y.a.C.C.a.k.n.n.C.C.v.u.~ n q #     . . .   . . . $ u n b b :.S.~.v.f.C.u.f.C.k.:.Z.H.D.I.H.",
"J.I./.I.|.m.|.`./.@X XS.V.8Xs. .V 4                       & x U U P ' l.,XJ.n.@X#X,X_.k.' f.v.f.m.q.",
"C.L.@X|.|.m.:X6X:X6X&XL.S.*Xw.~ k *                 X     7 H Y U P U u.&X/.S.&X&X2X,Xn.:.Z.R.J.C.y.",
"S. X9X,XT.c.T.:X,X5X XD.V.D.4.b =       O       X X @ . . 8 H Y Y P x :.Q. XD.@X<X<X,XC.6.J.[.`.H.p.",
"l.D.|.Y.C.q.v.S.Y.I.D.n.f.u.} l o       @ O @ * + + * o # 0 K L Y P i ^ l.S.V.D.W.U.I.v.:.D.[.~.K.a.",
"w.k.C.n.v.q.v.m.v.C.S.n.s.&.U 9         O O @ > + + @ o # 0 K H P Y i b q.n.V.S.n.n.A.k.,.H.[.`.H.u.",
"n.S.I.L.I.k.Y.Y.v.H.@X@XD.*.U 6         O O @ @ + + @ . # 0 U H U } Y U w.J./. XA.A.J.n.q.Y.E.Y.C.y.",
"L.@X5X#X:XC.:X6XS.T.,X5X%X*.~ 9         O O O + @ + o . # e Y Y Y ..R U w.@X6X2XI.Y.|.H.u.C.C.v.v.<.",
"l.S.I.L.Y.c.|.6XJ.Y.L./.!.*.^ 9       O @ @ O   @ + o . # u Y Y H } Y i 6._.&XW.D.D.U.D.u.C.v.f.a.o.",
"&.k.A.n.n.y.S.T.k.c.D.W.S. .~ 9 o X     O @ @ @ * * * o # u Y Y R I i U ..J.J.U.v.v.n.k. .f.f.a.a.{ ",
"p.S.I.C.S.p.m.Y.S.C.J.D.l.^ U 9 o X   O @ @ @ @ * * * o # u Y Y I I P P } V.S.W.n.m.D.v.,.m.S.S.n.,.",
"S.&X2X/.@Xn.T.:X:X/.@XI.l.~ U 9 o X   O @ % ; : > * = o $ u Y Y I I D P } J.W.#X/.{.|.S.q.Y.|.@XK.y.",
"n./.@XI.@XS.6XeX5X6X9X,XS.[ T 9 o X O O % > > > > * = = $ u Y Y I I i D ..1X<X,XwX6X6XK.q.Y.|.:XK.y.",
"q.n.S.n.S.a.Y.:X@X|.<X XV.^ T y o X O @ ; > > > > * > = $ u Y Y J I I D } R. X/.2X#X4XN.2.S.T.|.H.y.",
"u.C.J.n.m.u.m.Y.I.J.I.S.s.U U y o O O @ ; > > : : * = = & u Y Y F X.O.R Y v.D.I.D.D.Y.b.,.N.Y.|.K.i.",
"n./.@XI.T.c.K.T./.I.W.S.s.n H 0 o o O @ ; > ; @ * * = = & u Y Y F +.0...} Z.L./.N.F.Y.b.<.S.T.:XK.i.",
"S. X@XU.:XC.T.T.:X:X5X@Xn.~ U 9 o + O @ ; ; @ @ * * * = & u Y Y J O.O.X.4.1X1X|.L.Y.$XH.q.H.T.$XK.i.",
"D.I.@X/.|.n.:X6X6X6X5X@XS.' U y o * * > 2 1 2 > < < 2 = - l ! Y Y R I R 8.E.9X,XY.:X7XH.<.v.n.N.b.=.",
"D./.,X@X|.m.|.|./.|.@XI.V.T x 9 o * * = > > > : : : < = = u U K Y Y H P 5.C./.J.C.I.{.v.,.v.m.K.M.1.",
"S./.,XI.Y.k.S.m.v.S.L.J.V.^ U 0 * * : > 2 2 2 > < < < > - u U K Y Y H H 5.C.E.C.c.C.K.c.<.H.T.4XK.i.",
"C./.#XI.I.n.T.H.c.S././.D.*.^ y = * > 2 2 2 5 2 3 < 4 1 , l ! L Y Y H H 5.J.1XP.S.P.T.c.<.H.T.:XK.i.",
"f.n.S.C.J.m.:X|.S.|.9X5X!.*.~ 0 = > 2 5 5 5 5 3 < < 3 1 , l ! K Y R H x *.J.0X,X5X7X:Xc.;.c.v.N.b.>.",
"v.n.C.C.H.k.Y.Y.A.|.8X,XQ.*.^ y 1 4 s d a a d g 3 3 s 4 9 v ! L _ } R P *.D.5X>X7X7X|.c.,.m.N.F.M.1.",
"<X&X#X#X,Xv.H.Y.c.S./.J.V.*.^ u 1 s g h g g j M g h h d w v ( Y Y X.} U | n./.J.J.Y.H.k.<.K.|.:XK.i.",
"&XW./.#X:Xf.m.S.c.S.J.n.k.^ Y y > 4 d d d d g j h h h d q v ! K H ) R x ^ s.C.v.m.m.v.p.,.H.T.$XY.i.",
"V.W.S.S.S.m.T.6X|.|.&XL.u.} U l j j j B Z S S Z C S B j Q / W K ) Y i i  .C.>XC.m.6XT.m.y.J.I.U.K.i.",
"p.C.n.n.n.v.T.6X5X7XeX,Xk.&.T u t f N S B N B S C B f t c Q ! _ P P P P *.H.5XY.H.7X:Xm.y.H.U.U.K.i.",
"n.@X/./.Y.S.|.7X|.:X8X/.s.} U y t j V @.A B B A ` ` B c n U K K U P P P :.H.,XH.m.2X`.c.u.I.2X=XF.e.",
"S.,X/.U.S.k.c.v.S.H.I.V.6.} ~ n V @.>.1.>.$.=.3.%.-.$.] [ ^ Y Y ^ U b b | f.C.p.y.c.k.<.7.J.<X#X}.h.",
"V./.J.J.S.a.p.y.q.7.7.&.U n T n V V ] #.#.] @.$.@.%.@.] [ ! L Y p b R T T  .7.;.7.y.<.[ ,.n.L.A.F.2.",
"C.@X/.,X,XY.H.S.D.C.n.s.9.s.l.l.a.i.h.z.b.z.z.b.j.M.K.K.V.9.E L } g.E.H.f.f.H.I.S.v.k.q.l.C.L.V.b.>.",
"V. X/.,X6XT.|.|.@XU.J.V.V.Q.*X!.H.G.K.{.$X{.{.{.j.G.;X6XQ.w.Y G 8.Z.qX`.v.n.P.@X>XJ.I.S.@XL. X-XK.e.",
"S.,X@X,X@XJ./.:XI.D.S.C.C.@X8X XH.K.{.4X6X4X$X$Xb.N.T.:X&XZ.l.B.!.[.%XJ.n.H.@X`.H.v.J.J.,XJ.@X2XK.i.",
"l.D.L.D.L.U.J.J.A.D.L.n.k.V.L.D.C.S.D.L.L.L.L.D.k.n.D.L.U.W.!.W.D.J.D.J.v.f.J.I.C.A.S.J.L.L.J.J.b.i.",
"*.w.p.w.p.p.w.u.q.q.u.,.&.6.p.q.q.q.u.p.p.p.u.w.| ,.w.u.p.p.p.u.u.p.u.p.:.&.u.p.q.q.u.u.p.p.p.u.p.2."
};
