/* XPM */
static char *fe5d749a489a4310b490526bfc73b176[] = {
/* columns rows colors chars-per-pixel */
"50 50 244 2 ",
"   c #2B241E",
".  c #32271E",
"X  c #343518",
"o  c #2D2422",
"O  c #2E2A25",
"+  c #2E2D2C",
"@  c #292728",
"#  c #322623",
"$  c #342A25",
"%  c #3B2A26",
"&  c #342D2B",
"*  c #3B2E2B",
"=  c #352626",
"-  c #3B3127",
";  c #35322D",
":  c #3B322D",
">  c #3D392D",
",  c #392F30",
"<  c #382E35",
"1  c #353331",
"2  c #3B3331",
"3  c #3C3933",
"4  c #3C3B3A",
"5  c #383439",
"6  c #2C2B30",
"7  c #5B3618",
"8  c #54320A",
"9  c #412E2B",
"0  c #43332D",
"q  c #49342F",
"w  c #443A2E",
"e  c #493A2D",
"r  c #433532",
"t  c #4A3634",
"y  c #443B34",
"u  c #4B3C34",
"i  c #463D3A",
"p  c #4B3D3A",
"a  c #40373A",
"s  c #513F3A",
"d  c #513E37",
"f  c #56392A",
"g  c #653B31",
"h  c #3A533E",
"j  c #50451E",
"k  c #6C4618",
"l  c #754C13",
"z  c #68430F",
"x  c #464133",
"c  c #4C4236",
"v  c #45423B",
"b  c #4C433C",
"n  c #4D493E",
"m  c #4A4831",
"M  c #524334",
"N  c #52443C",
"B  c #53493D",
"V  c #594C3E",
"C  c #53502E",
"Z  c #664428",
"A  c #695526",
"S  c #6D4932",
"D  c #7A4837",
"F  c #6D5638",
"G  c #7B5423",
"H  c #7A6739",
"J  c #453C42",
"K  c #3F5B44",
"L  c #4D4541",
"P  c #4D4C43",
"I  c #484746",
"U  c #534542",
"Y  c #594643",
"T  c #544B44",
"R  c #5A4B44",
"E  c #554D49",
"W  c #5B4E4A",
"Q  c #514249",
"!  c #4A5948",
"~  c #555045",
"^  c #5B5145",
"/  c #54534B",
"(  c #5C534B",
")  c #5C5A4D",
"_  c #545A48",
"`  c #5D5551",
"'  c #5C5B53",
"]  c #555B55",
"[  c #4D5355",
"{  c #614E4A",
"}  c #604D46",
"|  c #62544D",
" . c #62594E",
".. c #6A5243",
"X. c #7B5646",
"o. c #615551",
"O. c #635C53",
"+. c #6A5B54",
"@. c #6A5E59",
"#. c #685854",
"$. c #774A45",
"%. c #48634A",
"&. c #576A4C",
"*. c #4C6B54",
"=. c #5D635D",
"-. c #596A55",
";. c #587458",
":. c #656256",
">. c #6B6355",
",. c #64655B",
"<. c #69625C",
"1. c #6A6A5E",
"2. c #646A5C",
"3. c #766858",
"4. c #72795E",
"5. c #696E4F",
"6. c #597C63",
"7. c #5C7873",
"8. c #5D6E68",
"9. c #6D6D63",
"0. c #656A65",
"q. c #756B65",
"w. c #6C726A",
"e. c #687764",
"r. c #727466",
"t. c #73746A",
"y. c #767B6E",
"u. c #7A7E74",
"i. c #787977",
"p. c #6B7878",
"a. c #875A1F",
"s. c #8D601C",
"d. c #855E23",
"f. c #834D3E",
"g. c #86593A",
"h. c #8C642B",
"j. c #986928",
"k. c #8A6634",
"l. c #956C35",
"z. c #97753B",
"x. c #A66D39",
"c. c #A27538",
"v. c #84584C",
"b. c #925E49",
"n. c #885D56",
"m. c #9C6E49",
"M. c #97764B",
"N. c #99745D",
"B. c #8A6C56",
"V. c #A87B46",
"C. c #B27E5B",
"Z. c #A46D50",
"A. c #84786D",
"S. c #827C75",
"D. c #887876",
"F. c #997671",
"G. c #A47964",
"H. c #A97871",
"J. c #76805D",
"K. c #5A826E",
"L. c #5D8A73",
"P. c #62846D",
"I. c #648D6F",
"U. c #7C8A69",
"Y. c #678A76",
"T. c #7D8275",
"R. c #7C8B7D",
"E. c #798776",
"W. c #7B9677",
"Q. c #6A927D",
"!. c #8F8656",
"~. c #AD8446",
"^. c #B68848",
"/. c #A78B58",
"(. c #B38859",
"). c #B4945C",
"_. c #94876A",
"`. c #83847A",
"'. c #848A7D",
"]. c #898878",
"[. c #948B77",
"{. c #89947D",
"}. c #9A9179",
"|. c #919168",
" X c #A38866",
".X c #A79D6B",
"XX c #A29978",
"oX c #B39B74",
"OX c #B78F6F",
"+X c #9EA57C",
"@X c #B0A17B",
"#X c #C39255",
"$X c #C29963",
"%X c #D6A569",
"&X c #D8AF72",
"*X c #E3B173",
"=X c #7B8786",
"-X c #6B9883",
";X c #7B9282",
":X c #759986",
">X c #769491",
",X c #7BA28D",
"<X c #858E82",
"1X c #8A8E82",
"2X c #8A8E8D",
"3X c #948C86",
"4X c #859384",
"5X c #8B9384",
"6X c #8D948A",
"7X c #8C9A8A",
"8X c #869888",
"9X c #949983",
"0X c #94958C",
"qX c #939B8C",
"wX c #9A9D8C",
"eX c #979585",
"rX c #869B96",
"tX c #939C93",
"yX c #9B9E93",
"uX c #B19885",
"iX c #88A38F",
"pX c #9AA38A",
"aX c #8AA695",
"sX c #94A393",
"dX c #9CA394",
"fX c #9AAC9C",
"gX c #99A799",
"hX c #8EB19D",
"jX c #A1A38C",
"kX c #A7A789",
"lX c #A3AA9C",
"zX c #A6A797",
"xX c #B5AD8E",
"cX c #8DAAA2",
"vX c #93ADA3",
"bX c #9BB6A7",
"nX c #A3B3A3",
"mX c #ACB4A6",
"MX c #A3B9AA",
"NX c #B1BAA8",
"BX c #A9B2AC",
"VX c #C49085",
"CX c #B6C09D",
"ZX c #B3C8B4",
/* pixels */
"+ + & & & & & & * % * * $ : 3 ; & 2 : $ : 2 ; ; @ 4 2 & & & : : 1 5 + 1 2 & 2 & * & & & & & & $ $ $ ",
"+ + & & & & & & 2 * : : & : 3 & & 2 : : 2 2 & ; 3 O O ; 2 2 * : 2 5 ; 2 1 & a 3 * & % % & & & + O O ",
"& & & & & * * * % # $ $ # ; : $ % & # $ & $ & i 2   3 : $ 2 % $ & 1 & ; & o * * 2 * * * & & & $ O + ",
"; ; ; : 2 2 2 2 2 * : r 0 c b i U p r y L b E t.i L S.( & W Y i L L i L L r p p r r 2 , 2 : * & & & ",
"; & ; : : : 2 r r * 0 t y b U c W U p U W T O.S.i W 3X@.r o.W U ( E L ) ` b U p y t r 0 r : * * 2 1 ",
"& & & * * * * * 9 % % * : u p 0 p y r p U y c o.: : ( U r U p y T v 2 T E t y : r 0 9 * 0 0 * * : ; ",
"& & * * : r 0 r u r t y t B Y p p p p N T p y L i y y i b Y U b ( B i ^ | N U B r 0 9 * 0 0 : * & ; ",
": : 2 2 r t t t t 9 0 t u U R c T Y N U T b i L i ( b r p W o.U ( ^ b  . .Y | +.0 0 0 0 0 0 0 : : ; ",
": : & 2 y : % 0 u 9 9 0 0 u c y p B B y b : O.t.( ( T c c B B c U n w B R N Y N q q 0 0 w 0 $ $ & & ",
": 2 2 i T U N { U t u B R  . .B W ( ( ) O.v ) ,.zX3Xq.T c E o.O.O.~ i ^ ^ u N Y B R } c | >.B : 2 2 ",
"; ; : i T U p R | N N Y ^  .^ u E E n ~ O.P :.r.lXqXy./ L O.9.9.O.n y ( ( u B | R B { u >.eX .# : ; ",
"; ; & 3 b y 0 u R t 0 u u b c > n P n ' 9.,.u.6X0XtX1X9.,.9.,.T T x ; T E y u N . 0 O.0 Y A.c $ & & ",
"; ; ; i T B c U U N B R R ( O.( ) 9.r.1XqX{.7XdXdXnXlX6X1X5Xu.,.9.,.L E W U T c u t @.c O.`.b 2 : 2 ",
"; ; ; i E T c B B B | +. .O.>.:.9.'.'.qXqXqXsXfXnXmXlX7X6XyXqX1X'.u.' T T E o.R W U O.B @.S.b : 2 2 ",
"; ; & y T b y i y y B T b T  .:.u.7XE.4X4XsXsXsXnXnXgX7X5X5X4XT.1X`.O./ L y T E # L #.b i T 2 ; ; ; ",
"; ; & y T B c b E T T ~ ~ :.S.].'.lX9XjXjXzXwX{.'.8XiXgXfXgXqX'.mXzX'.S.<.n E o.U W U i @.S.` o 2 2 ",
"; 3 > c V B c b ~ v ' / / 1.wX5XpXzXuXuXG.N.G.B.4.8XP.P.P.W.{.{.mXlX'.0Xt.~ b W p Y T b q.3X@.$ 2 2 ",
"1 ; $ w B M u T n v I ] I y.'.`.9XjX3.v.f.D G.N.[.E.6.I.;.;.&.U.7X4XR.i.u.T E W 0 t p t U W : $ 2 2 ",
"4 ; : c ^ B N  .T I / t.w.dXzXwXeX}.B.X.f.f.b.B.[.].e.;.%.*.&.E.fXbXgX6XyX9.<.O.b T | U U b : c 2 2 ",
"+ ; : u R N u B v 1 ] 0.T.5XzX[.eXA.uXF.H.VXD B._._.J.&.! -.! ! E.aXR.7X5XT.' E y Y W y p T r : 2 2 ",
"+ 3 3 y B V M c ~ v 0.t.`.{.jX].3...OXF.H.uXg Z Z j j V 5.e.=.8.*.Y.P.8X7X6Xw.O.b E W y p W y & 2 2 ",
"5 4 y i B V B T ' ' w.tX'.jXjX}.X.X.X.v.$.$.D 7 M.M.A j m ~ [ [ 7.Y.,XaXbX7X6X9.O.` ( b U U 2 y 2 2 ",
"1 + & b R c 0 b n v =.5XT.wX9X_.N.G.v.n.g g G.g.).&Xk.A e n p.7.Y.L.:XiXrXE.<X,.P L b : i L & O 2 2 ",
"4 + y <.A.R u ( ' ~ i.6XdXpXkX_.m.b.b.n.f S OX(.$X&Xz./.X.w 0.=XY.L.Q.bX:XaXfX<X/ ' ) v O.S.o.$ 2 2 ",
"5 5 2 T +.R u T O.0XgXlXwXZXjXB.(.m.C.m.7 S g.$X*X^.j.h.H m 8.>X-XL.-XaXZXfXgXnX`.~ ( i ( q.: i : ; ",
"6 @ & ( q.R 0 T >.0XnXmXqXmXzXXXm.x.C.m.8 M.OXV.~.#Xs.l.H X 4X,X:X-X,XbXZXMXsXlX0X' T : ( q.: & : ; ",
"4 1 2 @.D.+.N  .n 2.tXNXdXzXjX_.V.%XV.k.k k z h.^.*X~.z.A X E.P.K.L.Y.hXaXfXtXtXi.( ( b q.].U 2 : ; ",
"5 ; $ B >.R e E ) P w.6X'.qXzX}.V.x.l.l.l 8 G ).~.$X&XH j C ;.Y.Q.Y.-XiX;X8XR.r.L v E b o.q.p : 2 1 ",
"1 ; # - B M w c T 3 ] i.T.'.pX_.l.h.^.d.d.l h.(.k.k.oXA m -.*.P.P.K.:X;X;XR.i.' T T W r y Y * * 2 1 ",
"; 4 : w R ^ M B L I i.tXdXdXlXXXk.c.%Xc.%Xl.8 k 7 F 3.V _ &.;.*.6.6.iXiXnXtX0Xt.T T Y p U W y 2 2 2 ",
"O > : w V B u T v v =.=.u.'.wX[.M.l ~.*X*X#Xl.G Z F ^ ) -.%.6.*.*.P.;X;X<Xy.,.' * : y p R R r : 2 2 ",
"2 3 : y V c u ( ~ / ,.,.6XzXlX]. X!.d.~.^.V.h.M.oX_.r.2.;.h %.K Y.iX7XsX1X'.t.].b b U p s y * y 2 2 ",
"; 3 3 i U B T ( ~ v ~ 2.T.dXnX9XkX|.H z.(.^.h./..X!.J.e.-.! -.e.sXfX5X6XdXt.r.i i  .W N b p p y 2 2 ",
"2 1 : b E p y T b > y n / r.'.T.4.+X!.M.l.l.z.)..X|.U.6.! ! e.R.7X4Xr.6Xu.b n T 0 p y y p y * # & ; ",
"2 1 2 i E T p B E c b L L 1.1X5X'.CXXX@X/.M./.!.!.U.W.Y.Y.8XgXtXnXmX5XqX1.~ ( O.U Y B N R N r r 2 2 ",
"1 3 2 3 U E b u T c b n b O.`.'.5XpX_.xXxX@XxX@XpXpXaXaXaXvXsXR.mXmX'.t.) )  .Y U R R t t p : r 2 2 ",
"2 & : L ` U 0 0 U u u c y b O.' E.E.U.}.[.kXkXmXZXMXbXvXrX8X2X<X0Xy.=.T ~ y Y Y t U Y * t W t # & ; ",
"4 @ : 9.S.W t R R u N R B T W L t.'.{.[.[.zX9XdXMXvXcXcXrXtXyX0Xy.9.1.b T c ( R Y R | p +.D.{ % & & ",
"4 O 2 <.i.( c #.N 0 u Y N U R i / t.1.S.eXyX6XgXbXvXaXrX8X6X].>.:.:.:.B c B B N s s } t #.D.Y $ : ; ",
"1 1 & r L p t u d 9 u Y N s U y i :.> ) :.~ 0.tX=XrXrXp.=.9.>.M +.y -  .R N % R 9 9 N 9 s #.9 % : ; ",
"& 3 y y p t c | } N Y { W R { R o.<.^ ) O.P / w.NXBXi.=.'  .3.V 3. .c T | Y | | t q t 0 t Y t * 2 1 ",
"2 2 % $ * $ = 0 d q u N Y R Y p U | c c B b ~ ] 2X=X] E W R ..f  .T > u c 0 t u t 0 t 9 9 t % * * ; ",
", 2 * 2 p u t s 0 0 u s U W R r p W u u c c n v ` / L U N u M M u y - c N 0 s N t t d 9 9 r % * & & ",
"2 3 2 r p 0 % % 0 0 u u c W T 0 p Y p N b x c y y b p p u u M e B T b ^ Y 0 u u u 0 t 9 * t * : & & ",
"% , & & : * * u 0 w c i y b L r p p y B c w T  .U W W p p R c $ y y > y w - s B u 9 9 % * r $ * & & ",
"& , & * y u R 3.u c U b i n T L Q i r T b c 3.A.( q.D.o.p T L v ~ ~ b T (  .A.[.N 9 9 % * r # $ & & ",
"2 a * % * * 0 N c u c b v n P v Q J a L y x >.>.p +.D.` 2 J v P n B y y u y R  .p * 0 * * : # & $ $ ",
"o # o % 2 * # % -   # ; ; ; ; & < < 1 3 O $ y . : = 2 # , I 1 + $ ; $ : : # : % : # * & $ & o & O O ",
"$ $ $ % $ & & & & 2 2 ; ; 2 ; & 2 1 2 2 : : : : : & ; , & 2 2 & : : ; ; ; ; & : & & : & & & & & & & ",
"$ $ $ & & & & & & 1 2 1 ; 2 2 & 2 2 2 2 2 2 1 2 ; & ; ; & 2 3 & : : ; ; ; ; ; ; ; ; ; ; & & & & & & "
};
