/* XPM */
static char *result[] = {
/* columns rows colors chars-per-pixel */
"50 50 228 2 ",
"   c #141516",
".  c #1C1C1C",
"X  c #201F1E",
"o  c #28231E",
"O  c #32271E",
"+  c #222322",
"@  c #2C2523",
"#  c #2C2925",
"$  c #292728",
"%  c #2C2C2B",
"&  c #332624",
"*  c #382324",
"=  c #332B25",
"-  c #3B2A26",
";  c #342D2B",
":  c #3B2E2B",
">  c #2D322D",
",  c #3B3127",
"<  c #35322D",
"1  c #3B322D",
"2  c #3D392D",
"3  c #2C2B30",
"4  c #392F30",
"5  c #382E35",
"6  c #2F3731",
"7  c #343332",
"8  c #3B3331",
"9  c #343935",
"0  c #3B3934",
"q  c #383439",
"w  c #3C3C3A",
"e  c #43281F",
"r  c #71341F",
"t  c #412E2B",
"y  c #5B2323",
"u  c #473628",
"i  c #43332D",
"p  c #49342F",
"a  c #443A2E",
"s  c #553C29",
"d  c #433532",
"f  c #4A3634",
"g  c #443B34",
"h  c #4B3C34",
"j  c #40373B",
"k  c #453D3A",
"l  c #4B3D3A",
"z  c #513E35",
"x  c #513E39",
"c  c #6F2E29",
"v  c #39423C",
"b  c #674716",
"n  c #56482A",
"m  c #454134",
"M  c #4C4136",
"N  c #45433C",
"B  c #4C433C",
"V  c #4D493D",
"C  c #524334",
"Z  c #584836",
"A  c #52443C",
"S  c #54493D",
"D  c #5A4C3E",
"F  c #5C5137",
"G  c #754F2C",
"H  c #644D34",
"J  c #453C42",
"K  c #3E4340",
"L  c #444443",
"P  c #4C4541",
"I  c #4D4B43",
"U  c #484B48",
"Y  c #534542",
"T  c #594643",
"R  c #544B43",
"E  c #5B4B44",
"W  c #514249",
"Q  c #554D49",
"!  c #5B4E4A",
"~  c #4A554A",
"^  c #555045",
"/  c #5A5146",
"(  c #54544C",
")  c #5C534B",
"_  c #57584F",
"`  c #5C594D",
"'  c #545653",
"]  c #555354",
"[  c #5D5551",
"{  c #545B54",
"}  c #5C5B53",
"|  c #604D46",
" . c #614E4A",
".. c #62534D",
"X. c #695648",
"o. c #62594D",
"O. c #735B4D",
"+. c #615551",
"@. c #695653",
"#. c #635B53",
"$. c #6A5B54",
"%. c #6A5E59",
"&. c #4E6A5A",
"*. c #566157",
"=. c #5D635B",
"-. c #7A6148",
";. c #646256",
":. c #6B6455",
">. c #63645B",
",. c #6A635C",
"<. c #67695E",
"1. c #6A6A5E",
"2. c #766659",
"3. c #6E7759",
"4. c #597766",
"5. c #666862",
"6. c #6D6C62",
"7. c #766A66",
"8. c #6E7063",
"9. c #6D7269",
"0. c #73746A",
"q. c #78786B",
"w. c #6F797A",
"e. c #787872",
"r. c #7A7D74",
"t. c #8C1C1B",
"y. c #90161A",
"u. c #92331C",
"i. c #AC271E",
"p. c #B41E20",
"a. c #B82821",
"s. c #A9501C",
"d. c #8E5326",
"f. c #B95433",
"g. c #8E6A37",
"h. c #AA6430",
"j. c #CA5C1E",
"k. c #C95327",
"l. c #CC5F35",
"z. c #D46B20",
"x. c #CC7727",
"c. c #DA7A22",
"v. c #9D6A46",
"b. c #88735A",
"n. c #947053",
"m. c #A6754C",
"M. c #867468",
"N. c #817A6D",
"B. c #947862",
"V. c #827C75",
"C. c #897977",
"Z. c #927D78",
"A. c #A77F62",
"S. c #C96349",
"D. c #D1784E",
"F. c #5C8871",
"G. c #658D79",
"H. c #7C8176",
"J. c #768679",
"K. c #69937D",
"L. c #E38022",
"P. c #AB835C",
"I. c #8A856F",
"U. c #958768",
"Y. c #8B8A73",
"T. c #838479",
"R. c #8B847E",
"E. c #84897D",
"W. c #8A8C7E",
"Q. c #958777",
"!. c #8A907B",
"~. c #9C9276",
"^. c #A28269",
"/. c #A78568",
"(. c #BA8A6A",
"). c #A79578",
"_. c #BA9475",
"`. c #9FA17F",
"'. c #D38753",
"]. c #CB8D6C",
"[. c #C79D7D",
"{. c #D29775",
"}. c #D3A57C",
"|. c #E1A57E",
" X c #798786",
".X c #6D9B84",
"XX c #7B9282",
"oX c #769884",
"OX c #77A38C",
"+X c #848D84",
"@X c #8A8D88",
"#X c #988B87",
"$X c #8B9384",
"%X c #8D9489",
"&X c #88998B",
"*X c #94958C",
"=X c #969989",
"-X c #869C9A",
";X c #939B92",
":X c #9B9D92",
">X c #83A28F",
",X c #9DA18D",
"<X c #89A593",
"1X c #9DA294",
"2X c #99A79A",
"3X c #8EB19D",
"4X c #A2A68D",
"5X c #A5A997",
"6X c #A4A99C",
"7X c #ADB198",
"8X c #93A7A0",
"9X c #99B9A6",
"0X c #A8ABA4",
"qX c #A5B3A6",
"wX c #B3B6A9",
"eX c #ADB4B3",
"rX c #B9B7B2",
"tX c #CDA583",
"yX c #D3A987",
"uX c #DCAC85",
"iX c #E6AD86",
"pX c #E5B18A",
"aX c #EAB48C",
"sX c #E5B691",
"dX c #EBBB94",
"fX c #F1BF98",
"gX c #B3C8B4",
"hX c #F2C098",
/* pixels */
"% % % < ; ; ; : : ; ; : = 1 2 < ; 8 1 = 1 0 < > # w 8 < ; ; 1 1 7 0 % ; q : 5 4 4 ; * 5 5 ; ; & & % ",
"% < ; ; ; ; ; ; d 4 1 : ; 1 0 ; ; i 8 < 0 7 ; < 0 # # ; 8 8 ; 1 7 w 7 0 8 ; f 5 4 : & ; ; ; ; 3 & % ",
"< % ; ; : : : : - & - - = = 2 - ; ; & = ; ; ; k 0 o 0 8 & 8 ; & ; 7 # 7 ; o : 4 4 4 5 : : ; ; = # = ",
"< < 7 < 8 4 8 8 8 - 1 d 2 B B k Y l d j l L Q 0.k P V.) ; Q R l B U k P P j l l f d t 4 4 8 4 ; ; ; ",
"< ; 7 8 : d 4 i t : d d d S T M ! T l Y ! R #.C.k ! @X%.d +.! W ) R P ) [ B Y l f d d d t 8 , : 8 7 ",
"; ; ; : : 4 t t t - - : : g B 1 l d d l Y k k [ 8 : ! R d Y l g R N 0 R ! h d t f t t : t i t < : 7 ",
"; ; : 4 5 t d d f d p g h A E B l P l J R l j S g g g l l Y Y x ! V k )  .A Y A d t t t 1 1 1 ; ; < ",
"8 8 4 d d d d f f t i f h E T M T T x Y R B k I k ! P d l ! @.Y ` / B o.+.T @.@.i i t p p i i i : 7 ",
"1 1 ; 8 g t - d f t t p p h A a k Y B g B 2 #.0.) ) I M B Y S l R V a S E S S C p p t t a i O = ; ; ",
": 8 8 k T Y Y ! T f h A ! o...S / ..[ ) #.N ) >.:X+X6.Q l R +.+.;.^ m / E h A D Z D / l / 2.S 2 8 8 ",
"; < 1 g R P l T @.C C T | o./ m R R P I } I } >.j 7 0 N N [ 1.6.` V g ) ) h S  .E S | h 2.#X..O 1 7 ",
"; < ; d B k i l T h d h h B A 2 I R N 7 N } 5.w + X 7 % % % P R ^ m 2 R R g h M O t @.a E V.B - ; < ",
"< < < m V S B S E B S E / ) o.` ` _ ~ L $ 6 > + + + > % % 7 ( *.6.%.I R R R R B h l $.A #.R.B 8 7 1 ",
"< 2 , m R I M R S S ..;.o.o.:.:.8._ $ + + X + + + + + + + + $ 0 9.e.} R R Q [ T  .Y +.S #.V.B 1 8 8 ",
"6 , , m R V g h d g B S V S o.*.5.w X + + + + + + . X + + + + X > 5.#.( P k R Q & P #.P k R 8 1 < < ",
", > > v R S m B R R R ^ ^ ;.I.T.L X + % 3 + . X + $ + + % % % + + w r.V.,.V T +.Y ! P l %.V.} @ 8 7 ",
"6 2 2 M D Z M V ( L { ' ( 1.=X!.U X + $ + . . . + 3 X + % $ $ + X > e.&X0.) P ! k T Q l 7.#X%.= 1 8 ",
"9 < = a Z C M ^ V N L { U q.W.=.> . X + + @.b.& X X . . + + + . X + { r.r.I T ! t d l d Y ! : = 8 7 ",
"v 1 < C / Z C o.I U ~ 0.9.1X5X` . . . . @.{.sXA.% $ . A 2.o . . . . w @X:X9.,.#.P T  .T Y A d M 7 1 ",
"> ; < h E S h B B 7 { <.H.$X7Xq.<   o < A.iXaXyXO._.k b.aX2.< X   + { &X%Xr.[ Q g T ! j k T 8 < 8 7 ",
"> 0 0 g S E C B ^ N 5.9.T.!.,XY.<   f yXtX_.[.sXsXfXtX/._.}.tX1   $ 4.oX&X%X9.} B Q ! d l Q g ; 1 1 ",
"9 j g h A E A E } } 0.<XE.4X4X~.M M | tXM.Z.Z.A.fXdXB.q.N.Q.tXB M 9 XX<XqX&X%X6.#.[ ) B P R 8 g 8 7 ",
"5 % ; B | z i V V V =.$XJ.,X!.U.^.tXn.O.#X0XrXO.(.B.b.wX0Xe.q.B.).&.OXOX>XJ.+X>.I U B 8 l P ; # : 8 ",
"w 3 d 5.q./ h ) } I r.%X4X,X4XU.v.m.A.n.#XrXrXn.}.}.P.rXrX0.Q.(.:.4..X9XoX;X2X+X( } ) N %.V.+.= 8 7 ",
"q q 8 T %.E a S #.*X2X2X,XgX,Xb.(.v.].uXB.2.b.}.hXdX_.b.b.U.sX/.4.F..X<XgX9X2X0XT.( ! k ) 6.1 g 4 ; ",
"3 $ ; ) 7.! i E ,.%X0XwX=X7X7X).v.h.n.].yXuXsXhXhXhXhX|.uXuX].X.G..XOX9XgX9X2X6X*X} Q 1 ! 7.d ; 8 8 ",
"w 7 q %.V.O.B o.P 5.;XeX1X5X4XU.m.'.u.f.'.iXpXiXaXpXiXiX|.D.f.c &.F.G.3X<X9X;X:Xe.[ ! P 7.@XR 8 ; 7 ",
"w 3 = B :.E a R ) I 9.%XE.=X4X).m.g.s.z.l.S.S.'.S.S.'.S.D.k.z.u.*.K.K.<XXX+XJ.0.P k ! l  .7.l 2 8 8 ",
"7 < O , Z Z u m I 0 { J.H.!.,XU.g.d.d.s.z.k.a.L.a.a.c.p.j.j.s.r &.F.K.J.+XJ.H.} Q Q T 8 j T : ; 8 < ",
"< v 2 a E | C R V U r.;X1X2X7X`.g.g.s s u.u.t.u.y.t.u.y.u.r 2 2 K F.>X<XqX;X*X0.R R T k T  .d d 8 8 ",
"> 9 1 a D Z h S N L =.=.r.E.,XY.n.b u -.* * * t z p y u.i.y v 9 6 4.K.+X+Xe.,.#.- 8 g l E T d : 8 8 ",
"0 1 , a S M h ` R ( 5.=.%X6X7XU.U.C O H # @ X h L k n L.L.G > 6 % J.=X<X+XE.7.@XJ x Y x A d t g 8 8 ",
"< 0 0 g I R R ) ^ m I 5.H.5X6X=X`.m # n % $ # Z L v z a.a.r 6 9 % J.&X=X,Xq.0.k k ..! S l A l k 8 8 ",
"8 7 8 l T k g Y B 2 m V _ 9.J.H.3.m # n $ $ # Z L v F x.x.G w w # 9.8.=XH.N S S i h d g k d - & 1 ; ",
"q 8 8 k T I k S ^ M V V I 1.W.$X!.U.n o.$ $ $ Z c c V n n 1 ' A.b.=X!.,X6.^ / ..R T S Y T B d d 8 7 ",
": q 8 0 R ! M m R M V V N #.V.W.Y.G s :.$ $ $ S c y V > + + ' B.q.6XE.0.` ` o.E Y E T h f l t d d 8 ",
"0 ; : P +.W i i D a l M g B #.) H u ` :.$ $ $ ( 6 3 K q 3 3 U r.$Xq.*.D ^ m E E z J T t f  .f & ; 7 ",
"w $ 4 6.V.E p ! ! l S E S Y ) z e } !.q.0 w 0 =.K 6 &.K 9 9 5.*Xq.8.1.B R m  .| T T @.x %.Z. .; ; ; ",
"j @ 8 5.e...x @.C i z T A Y A t 0 0.1.N.5.( ~ XX8X-X X{ K U 5.,.:.;.:.V C S A C x x | f @.C.T * 4 7 ",
"7 8 ; d J x d h z t h T A x z - j >.2 ` w . . 9. X-X X+ . + U Y ;.a , o./ A t T p y x t J @.t : : 8 ",
"; j j k l h A  .| A T  .| |  .! +.%.) ` ) < 2 =.eXeXw.K 0 B 2.D 2.o.M R / E  .@.f p f p f J x p 8 7 ",
"8 4 ; & : * O i z p z A T T T f Y  .l M S m I { @X X] Q ) / H s ;.S 2 h C i f z f p f t t f t * : < ",
"4 8 ; 8 l k f M p u p z T ! ! d l | z a M M V m ] ] P R A h C C m a , M A a x x f p f t t d t : ; 7 ",
"q 8 8 d l i * t t i h h M ! T 4 l T l S V m m m g P l l z h n u S S B E T a z h f p f t t d : t ; ; ",
"; 4 : : 4 - t l i a M g g P R 0 l l d A C m D o.Y ! ! l l ! l , g g u a a i l E h t t - * d * : ; ; ",
"; 4 * : d l ! 2.h M E S k B R P W j j Y M M 1.M.! 7.C.@.l Q B N ^ ^ V R | ..M.Q.x i - - 4 d & & ; ; ",
"d j 4 * : - , S M h B B N V U N W J v M m m :.:.J @.C.] 8 J N U V S a m h a ! ..x : i : : 1 & ; = # ",
"@ @ @ ; d - & - = O O < < < 7 = q 8 1 v # = m & t * 5 * 5 J 6 > ; , = 2 2 O i - i & : ; - ; @ : = # ",
"& & & ; ; ; ; ; ; 8 8 < < 8 < < 7 q 8 1 7 1 < 1 1 ; < 4 ; q 0 ; < < < ; 1 ; < 1 ; : 7 : ; ; ; % ; # ",
"; 3 3 ; = ; ; ; ; 0 8 7 7 8 8 ; < 1 7 8 1 7 < 8 < < 7 ; ; 8 8 ; 0 < < < < ; ; < < < < ; < ; ; ; % ; "
};
