/* XPM */
static char *b6df74d17b504d95c3f7fad1d9534b9156jRXsI1Q7DXMUB3[] = {
/* columns rows colors chars-per-pixel */
"50 50 167 2 ",
"   c None",
".  c #212418",
"X  c #272522",
"o  c #322F2C",
"O  c #35322E",
"+  c #393532",
"@  c #3E3C33",
"#  c #403C37",
"$  c #423E39",
"%  c #3B4127",
"&  c #42492E",
"*  c #4A512E",
"=  c #454533",
"-  c #474C31",
";  c #484D35",
":  c #46423D",
">  c #4A453F",
",  c #4E5434",
"<  c #4D5039",
"1  c #505535",
"2  c #515738",
"3  c #55593B",
"4  c #595F3C",
"5  c #5B623C",
"6  c #646E3C",
"7  c #66723E",
"8  c #6A743E",
"9  c #4C4741",
"0  c #4D4842",
"q  c #514C46",
"w  c #544E49",
"e  c #4F5640",
"r  c #575943",
"t  c #595D44",
"y  c #56514C",
"u  c #5A544E",
"i  c #5E5C4D",
"p  c #5C5650",
"a  c #5E5952",
"s  c #605F4C",
"d  c #635D56",
"f  c #655F58",
"g  c #5C624C",
"h  c #5D615B",
"j  c #656B44",
"k  c #61614B",
"l  c #666D48",
"z  c #6D7743",
"x  c #6E7942",
"c  c #6F764A",
"v  c #70774D",
"b  c #747B4D",
"n  c #646253",
"m  c #686557",
"M  c #6C6D53",
"N  c #676159",
"B  c #6A645C",
"V  c #6F695D",
"C  c #767951",
"Z  c #797D55",
"A  c #777A58",
"S  c #7C7E5A",
"D  c #676A62",
"F  c #6E6860",
"G  c #746C63",
"H  c #786F67",
"J  c #777066",
"K  c #797166",
"L  c #7C7A62",
"P  c #767169",
"I  c #7C746B",
"U  c #717B74",
"Y  c #7A7B73",
"T  c #80776C",
"R  c #82796E",
"E  c #857C72",
"W  c #897F74",
"Q  c #7B8055",
"!  c #7E815B",
"~  c #80805D",
"^  c #848364",
"/  c #87846A",
"(  c #8A866C",
")  c #8B886B",
"_  c #8B8276",
"`  c #8F8A74",
"'  c #8D8479",
"]  c #8E8478",
"[  c #8F8579",
"{  c #8E8578",
"}  c #8C847B",
"|  c #8E857A",
" . c #8F867B",
".. c #8E857C",
"X. c #8E8579",
"o. c #908975",
"O. c #91877B",
"+. c #90877B",
"@. c #91877C",
"#. c #90867B",
"$. c #908878",
"%. c #91887B",
"&. c #92897A",
"*. c #92887C",
"=. c #93897D",
"-. c #92897C",
";. c #938A7D",
":. c #918A7F",
">. c #94897D",
",. c #948A7D",
"<. c #948A7E",
"1. c #958A7E",
"2. c #948B7E",
"3. c #958B7E",
"4. c #958B7F",
"5. c #968B7F",
"6. c #958C7F",
"7. c #968C7F",
"8. c #948A7E",
"9. c #998E7F",
"0. c #9C927F",
"q. c #7E8781",
"w. c #968B80",
"e. c #948C80",
"r. c #968C80",
"t. c #968D80",
"y. c #978D80",
"u. c #978D81",
"i. c #978C80",
"p. c #978E81",
"a. c #978D82",
"s. c #948F83",
"d. c #978E84",
"f. c #968D81",
"g. c #988D81",
"h. c #988E81",
"j. c #998E81",
"k. c #988E82",
"l. c #998F82",
"z. c #998F83",
"x. c #988E82",
"c. c #929287",
"v. c #949285",
"b. c #929185",
"n. c #9B9083",
"m. c #9A9084",
"M. c #9B9185",
"N. c #9C9285",
"B. c #9B9184",
"V. c #91948A",
"C. c #9C9388",
"Z. c #9E9589",
"A. c #9F958A",
"S. c #9E958B",
"D. c #9F968A",
"F. c #9F968B",
"G. c #9E9489",
"H. c #A19584",
"J. c #A0968B",
"K. c #A0978B",
"L. c #A0978C",
"P. c #A0968B",
"I. c #A1988D",
"U. c #A2998D",
"Y. c #A1998E",
"T. c #A2988E",
"R. c #A2988D",
/* pixels */
"  C.J.J.J.}   I.J.J.J.=.  I.A.A.A.W   L.A.A.A.A.    L.A.A.A.A.A.J.A.A.J.    I.J.A.J.d.  I.J.A.J.z.  ",
"=.,.r.7.r.R G n.r.r.r.E B m.,.7.r.W G z.7.r.r.r.B ..r.7.7.7.,.,.7.7.7.r.P P n.7.7.r.} B m.7.r.r.} q ",
",.,.,.,.,.R B z.,.,.7.E N r.,.,.7.E F ,.,.7.r.,.N _ ,.,.,.,.,.=.,.,.=.,.J G z.,.,.7.' u E =.,.,.} 9 ",
"R T T I I d N z.w.r.r.E q P I T I B q T T T T I q ' ,.,.,.,.,.,.,._ _ ,.J y I T T T G 0 E E =.,.} 9 ",
"u G G G G d I z.,.,.,.E 9 P G G G F k 5 3 3 3 < @ r.,.,.,.,.,.$._ W O.,.J 9 P G G G N N z._ ,.,.} 0 ",
"I.m.z.z.z.W G z.,.,.,.E N m.r.r.z.z.( b x z b v t } ,.,.,.,.O._ } =.,.,.J G N.z.z.z.} B r.,.=._ } 0 ",
"J.r.,.,.,.R B z.,.,.7.E N r.,.,.,.,.=./ Z S ` ` d W r.,.,.} E } 7.,.r.z.J G z.,.,.,._ d ,.,.,.O.} 9 ",
"L.r.,.,.,.R 9 G G G G d a z.,.,.,.,.,.,.$.$.,.,.d d G G G d d G G G G G u G z.,.,.,.` q G G G G B o ",
"J.r.,.,.O.B B E I I I G P z.=.=.,.,.,.,.,.,.,.,.d B R I f u I I I I I I d E z.,.,.=.T d E I I I G   ",
"J.r.,.,.E B _ z.r.7.z.} F r.O.} ,.,.,.,.=.,.,.,.N _ z.z.E R z.r.r.r.r.z.I J z.,.,.E T } r.r.r.r.O.q ",
"A.r.,.} T E _ 7.7.=.,.E N r.,.,.,.,.,.,.=.=.c.r.N W r.w.E _ 7.,.,.,.r.v.P G z.,.=.R @.r.,.,.,.,.} 0 ",
"  I I G G B B I I I I B > P I I I I I I I I Y P 9 B I I B H I I I I Y Y a w I J G G I I I I I I G + ",
"  P G G G a   G G G G G I I G G G G 0 d G G G G G E G s 1 , - : G G G G G E P G G G B $ B G G G G P ",
"I.m.r.r.z.E G N.r.r.r.z.z.r.r.r.r.r.B =.z.z.z.z.z.7.,.` S c l B H.N.r.r.z.r.r.r.r.r.} B m.r.r.r.r.r.",
"J.} _ ,.,.R B z.,.,.,.,.,.,.,.,.,.O.D } ,.,.,.,.,.,.} O.$.$.R B n.9.O.O.,.,.,.,.,.,.' d r.,.,.,.,.=.",
"A.E R =.,.R d =.O.O.O.O.7.,.O.O.O._ h I O.O.O.O.O.O.O.} O.O.P d ,.$.} } O.O.O.O.O.O.E u _ O.O.O.O.O.",
"A.} O.,.,.R $ N d d f a y d d d d d 9 f d d d d y u d d d d u w G V d d a w d d d d a 0 B d d f d w ",
"J.r.,.,.,.R d z.=.=.=.E d w.=.=.=.=.r.z.=.=.=.=.G W ,.=.=.=.,.z.,.=.=.=.G F r.=.,.,.,.z.r.=.=.=.} y ",
"J.r.,.,.,.R B z.,.,.,.E B r.,.,.,.,.,.,.,.,.,.7.K _ $.,.,.,.7.0.,.,.=.,.P G z.,.,.,.s.s.,.,.,.O._ 0 ",
"=.} O.O.O.P f =.} } O.R d r.,.,.,.,.O.,.,.,.,.,.N W ,.,.,.,.7.0.,.,.} ,.P G r.,.,.,.c.c.,.,.,.=._ 9 ",
"  B f N N a y B f f N w N z.,.,.,.,.=.,.,.,.,.} d W ,.,.,.,.,.=.,.,.=.,.P G r.,.,.,.,.,.,.,.,.,.} 9 ",
"I.r.7.7.,.,.z.r.,.,.,.W G ) ` =.,.,.,.r.r.O.' I w W ,.,.,.,.,.,.,.=.=.,.P G r.,.,.,.s.c.,.,.,.` / > ",
"J.r.,.,.,.=.,.,.,.,.,._ g x Q ` ,.,.,.=.O.R _ O.N W ,.,.,.` ~ ^ =.,.=.,.I I z._ O.,.s.s.=.$.^ b C = ",
"r.=.=.=.=.O.=.=.=.=.=.E e 8 8 Z $.=.W T O.=.=.O.d T ,.=.$.Z 8 x S ` =.=.G F =.O.=.=.=.=.=.$.C 7 7 % ",
"  f d d d d a d d a d y @ 3 1 3 d d w y d d d d + y f d i , * * 1 t d d 9   d d d f d d d d r , ; . ",
"  =.' } } J d } W G _ } z.=.} ' } I d } } } } _ f =.@.} R j 2 I } ' _ } G   =.} } ' _ _ _ ' ' ' E   ",
"L.r.,.,.7.E B W E ' ,.,.,.,.,.O.,.W P m.7.7.,.=.N _ r.,.,.( M } r.,.,.7.P G n.H.,.=.,.,.,.,.,.,.} 0 ",
"C.r.w.r.r.R B _ _ 7.,.,.,.,.,.=.7.E F z.,.,.,.,.N W r.r.r.,.G _ r.,.w.r.P G z.9.} E _ =.,.,.,.,.} 0 ",
"  G J J J d : G G J H H H G J J J d d z.,.,.,.,.d d J J J G 0 a J G G G u G r.,.O.E E } ,.,.=.,.} 0 ",
"  I P P P P I P P P P B 9 G P P P B P n.,.O.} ,.d B I P P P P E G P P P a P z.,.,.=.=.=.=.} _ ,.} 0 ",
"I.n.r.r.r.r._ =.z.r.r._ B m.r.z.z.W G z.,.O.O.,.N _ z.r.r.r.r._ _ r.r.z.P G z.,.,.,.,.=.} _ =.,.} 0 ",
"J.r.,.,.=._ W =.,.,.,.L n r.,.r.r.E B r.,.,.,.,.N W ,.,.,.,.,.} T ' O.,.J G z.,.,.,.,.=.W =.,.,.} 9 ",
"J.z.,.,.=.@._ O.w.=./ z ; G G G G d $ G G G G V 9 } 7.,.,.,.,.,.R E _ ,.J 0 G G G G G G B G G G B o ",
"L.r.,.,.,.,.' @.,.,./ z < E I I I G   q.Y I I B 0 r.=.,.,.,.,.=._ =.,.,.J d E I I G d I I I I I G   ",
"L.r.O.=.,.,.,.,.,.$.$.A n z.r.,.r.r.P s.v.r.r.=.N _ O.=.,.,.,.,.,.,.,.,.J G z.r.r.} E r.r.r.r.r.O.q ",
"C.r.O.,.,.,.,.,.,.O.,.E N z.,.` =.r.G } r.r.,.,.d W 7.,.7.,.7.7.,.,.,.r.J G z.,.7.W _ r.,.,.,.,.[ 0 ",
"  G G G G G G G G G J d > P G G G J a G G G G G > d G G G G P P G G G G y 0 G G G B B G G G G G B O ",
"m.E I I I B 0 P I I U P ' W P I I I y G I I I I E ..I M 4 , & > P P P P I @.R I P P G : P I I I G   ",
"r.r.r.r.z.R G N.,.r.r.z.7.r.r.,.r.r.B $.` $.r.r.r.7.r.$.( b 5 m m.r.r.r.r.7.r.r.r.r.} B m.r.r.r.@.w ",
",.,.,.,.r.R B z.=.,.,.,.,.,.,.$.=.O.f R b ! o.,.,.,.,.,.w.$.L N z.w.w.,.,.,.,.,.,.,._ d r.,.=.} } 9 ",
"_ _ _ _ E a a } _ _ _ _ _ _ _ _ _ E y j 8 6 v S _ _ _ _ _ ' G u ' _ _ _ _ W E _ _ _ I p r.,._ } } 9 ",
"y f N B d a   F N N N a : d N N N q @ V k i s k 0 y N N N N a N d d N B y 0 N N N N u u z.,.O.=.} 0 ",
"J.m.z.7.7.z.z.z.r.r.r._ B N.r.r.z.} G z.z.r.r.r.B O.z.r.r.r.7.` E r.r.z.P P m.r.r.r.O.B z.,.,.,.} 0 ",
"J.r.,.E I W ,.,.,.=.O.E B r.,.,.,._ d ,.w.,.,.,.B _ r.,.=._ I R O.,.,.,.J G z.,.,.,._ d r.,.7.,.} 0 ",
"L.r.r._ E @.,.,.,.,.,.E u E W W _ G w W W W _ E u _ r.} E _ O.,.,.,.,.,.J G z.s.V.7._ y E W W W I # ",
"J.r.,.,.,.,.,.,.,.,.=.P : G B N u a B G B B B N : r.=.W =.,.,.,.,.,.,.,.J G z.,.r.,.E f G B B B d   ",
"J.r.,.,.,.,.,.,.,.} R V N m.r.r.I E z.z.r.r.r.r.B } } O.,.,.,.,.,.=.=.,.J G z.,.,.W E =.z.r.r.r.O.w ",
"L.r.,.,.,.,.,.,.O.E } E B r.,.,._ E ,.,.,.,.,.,.f E =.,.,.,.,.,.,.O.=.7.J G z.,._ K _ W ,.,.,.,.` 0 ",
"..} } } } } } } I _ } I y ' } _ T E } } } } } _ u P O.O.O.} } } } } } } B d } } B E } } } } } } R : ",
"  q 9 9 9 9 0 9 + 0 0 @   q 9 $ > 9 9 > 9 9 9 > X   q 0 0 0 0 0 0 0 0 0 O   q 9 + q 0 0 0 9 0 0 $   "
};
